<?xml version="1.0" standalone="no"?><svg xmlns="http://www.w3.org/2000/svg" viewBox="0 0 1440 320"><path fill="#5000ca" fill-opacity="0.3" d="M0,128L6.7,133.3C13.3,139,27,149,40,165.3C53.3,181,67,203,80,192C93.3,181,107,139,120,122.7C133.3,107,147,117,160,106.7C173.3,96,187,64,200,69.3C213.3,75,227,117,240,117.3C253.3,117,267,75,280,69.3C293.3,64,307,96,320,138.7C333.3,181,347,235,360,218.7C373.3,203,387,117,400,90.7C413.3,64,427,96,440,138.7C453.3,181,467,235,480,250.7C493.3,267,507,245,520,224C533.3,203,547,181,560,186.7C573.3,192,587,224,600,245.3C613.3,267,627,277,640,245.3C653.3,213,667,139,680,106.7C693.3,75,707,85,720,122.7C733.3,160,747,224,760,234.7C773.3,245,787,203,800,170.7C813.3,139,827,117,840,128C853.3,139,867,181,880,208C893.3,235,907,245,920,218.7C933.3,192,947,128,960,133.3C973.3,139,987,213,1000,245.3C1013.3,277,1027,267,1040,256C1053.3,245,1067,235,1080,240C1093.3,245,1107,267,1120,272C1133.3,277,1147,267,1160,224C1173.3,181,1187,107,1200,69.3C1213.3,32,1227,32,1240,26.7C1253.3,21,1267,11,1280,26.7C1293.3,43,1307,85,1320,106.7C1333.3,128,1347,128,1360,138.7C1373.3,149,1387,171,1400,181.3C1413.3,192,1427,192,1433,192L1440,192L1440,0L1433.3,0C1426.7,0,1413,0,1400,0C1386.7,0,1373,0,1360,0C1346.7,0,1333,0,1320,0C1306.7,0,1293,0,1280,0C1266.7,0,1253,0,1240,0C1226.7,0,1213,0,1200,0C1186.7,0,1173,0,1160,0C1146.7,0,1133,0,1120,0C1106.7,0,1093,0,1080,0C1066.7,0,1053,0,1040,0C1026.7,0,1013,0,1000,0C986.7,0,973,0,960,0C946.7,0,933,0,920,0C906.7,0,893,0,880,0C866.7,0,853,0,840,0C826.7,0,813,0,800,0C786.7,0,773,0,760,0C746.7,0,733,0,720,0C706.7,0,693,0,680,0C666.7,0,653,0,640,0C626.7,0,613,0,600,0C586.7,0,573,0,560,0C546.7,0,533,0,520,0C506.7,0,493,0,480,0C466.7,0,453,0,440,0C426.7,0,413,0,400,0C386.7,0,373,0,360,0C346.7,0,333,0,320,0C306.7,0,293,0,280,0C266.7,0,253,0,240,0C226.7,0,213,0,200,0C186.7,0,173,0,160,0C146.7,0,133,0,120,0C106.7,0,93,0,80,0C66.7,0,53,0,40,0C26.7,0,13,0,7,0L0,0Z"></path></svg>