<?xml version="1.0" standalone="no"?><svg xmlns="http://www.w3.org/2000/svg" viewBox="0 0 1440 320"><path fill="#5000ca" fill-opacity="0.3" d="M0,128L6.7,133.3C13.3,139,27,149,40,165.3C53.3,181,67,203,80,192C93.3,181,107,139,120,122.7C133.3,107,147,117,160,106.7C173.3,96,187,64,200,69.3C213.3,75,227,117,240,117.3C253.3,117,267,75,280,69.3C293.3,64,307,96,320,138.7C333.3,181,347,235,360,218.7C373.3,203,387,117,400,90.7C413.3,64,427,96,440,138.7C453.3,181,467,235,480,250.7C493.3,267,507,245,520,224C533.3,203,547,181,560,186.7C573.3,192,587,224,600,245.3C613.3,267,627,277,640,245.3C653.3,213,667,139,680,106.7C693.3,75,707,85,720,122.7C733.3,160,747,224,760,234.7C773.3,245,787,203,800,170.7C813.3,139,827,117,840,128C853.3,139,867,181,880,208C893.3,235,907,245,920,218.7C933.3,192,947,128,960,133.3C973.3,139,987,213,1000,245.3C1013.3,277,1027,267,1040,256C1053.3,245,1067,235,1080,240C1093.3,245,1107,267,1120,272C1133.3,277,1147,267,1160,224C1173.3,181,1187,107,1200,69.3C1213.3,32,1227,32,1240,26.7C1253.3,21,1267,11,1280,26.7C1293.3,43,1307,85,1320,106.7C1333.3,128,1347,128,1360,138.7C1373.3,149,1387,171,1400,181.3C1413.3,192,1427,192,1433,192L1440,192L1440,320L1433.3,320C1426.7,320,1413,320,1400,320C1386.7,320,1373,320,1360,320C1346.7,320,1333,320,1320,320C1306.7,320,1293,320,1280,320C1266.7,320,1253,320,1240,320C1226.7,320,1213,320,1200,320C1186.7,320,1173,320,1160,320C1146.7,320,1133,320,1120,320C1106.7,320,1093,320,1080,320C1066.7,320,1053,320,1040,320C1026.7,320,1013,320,1000,320C986.7,320,973,320,960,320C946.7,320,933,320,920,320C906.7,320,893,320,880,320C866.7,320,853,320,840,320C826.7,320,813,320,800,320C786.7,320,773,320,760,320C746.7,320,733,320,720,320C706.7,320,693,320,680,320C666.7,320,653,320,640,320C626.7,320,613,320,600,320C586.7,320,573,320,560,320C546.7,320,533,320,520,320C506.7,320,493,320,480,320C466.7,320,453,320,440,320C426.7,320,413,320,400,320C386.7,320,373,320,360,320C346.7,320,333,320,320,320C306.7,320,293,320,280,320C266.7,320,253,320,240,320C226.7,320,213,320,200,320C186.7,320,173,320,160,320C146.7,320,133,320,120,320C106.7,320,93,320,80,320C66.7,320,53,320,40,320C26.7,320,13,320,7,320L0,320Z"></path></svg>